<?xml version="1.0" encoding="UTF-8" standalone="no"?>
<!DOCTYPE svg PUBLIC "-//W3C//DTD SVG 1.1//EN" "http://www.w3.org/Graphics/SVG/1.1/DTD/svg11.dtd">
<svg width="100%" height="100%" viewBox="0 0 2550 3300" version="1.1" xmlns="http://www.w3.org/2000/svg" xmlns:xlink="http://www.w3.org/1999/xlink" xml:space="preserve" xmlns:serif="http://www.serif.com/" style="fill-rule:evenodd;clip-rule:evenodd;stroke-linecap:round;stroke-linejoin:round;stroke-miterlimit:1.5;">
    <g id="Layer1" transform="matrix(0.725871,0,0,0.878365,294.235,666.711)">
        <g transform="matrix(1.15997,0,0,0.968344,1001.72,21.9186)">
            <path d="M845.857,480C844.216,470.115 622.352,471.729 622.467,480C623.732,571.328 622.467,960 622.467,960L845.857,960C845.857,960 850.227,506.317 845.857,480Z" style="fill:rgb(179,177,168);"/>
        </g>
        <g transform="matrix(1.0032,0,0,1,143.88,30.5568)">
            <path d="M1958.43,905.561L1221,497.561L482.007,900.475L482.007,1673.56L1958.43,1673.56L1958.43,905.561Z" style="fill:rgb(191,184,145);"/>
        </g>
        <g transform="matrix(1.08597,0,0,1.02957,-92.3345,-96.1388)">
            <rect x="1182.36" y="1298.93" width="324.732" height="449.629" style="fill:rgb(222,218,194);"/>
        </g>
        <g transform="matrix(1,0,0,1,-1.7053e-13,-31.3846)">
            <g transform="matrix(1.06426,0,0,0.805556,-113.143,205.348)">
                <rect x="1623.66" y="974.197" width="249.794" height="299.753" style="fill:rgb(185,210,209);stroke:white;stroke-width:11.33px;"/>
            </g>
            <g transform="matrix(1.06426,0,0,0.805556,-872.703,205.348)">
                <rect x="1623.66" y="974.197" width="249.794" height="299.753" style="fill:rgb(185,210,209);stroke:white;stroke-width:11.33px;"/>
            </g>
        </g>
        <g transform="matrix(1.0032,0,0,1,143.88,30.5568)">
            <path d="M1958.43,920.33L1220.22,528.022L1220.22,1673.56L1958.43,1673.56L1958.43,920.33Z" style="fill:rgb(172,165,125);fill-opacity:0.48;"/>
        </g>
        <g transform="matrix(1.17155,0,0,1.05869,-135.465,-56.8429)">
            <path d="M1283.31,529.426L1972.16,959.274L1915.43,959.274L1283.31,592.281L651.18,959.274L594.451,959.274L1283.31,529.426Z" style="fill:rgb(99,99,99);"/>
        </g>
        <g transform="matrix(1.17155,0,0,1.05869,-135.465,-56.8429)">
            <path d="M1283.31,529.426L1972.16,959.274L1915.43,959.274L1283.31,592.281L1283.31,529.426Z" style="fill:rgb(88,88,88);"/>
        </g>
    </g>
    <g id="Layer2" transform="matrix(1.17922,0,0,0.795094,268.069,882.558)">
        <g transform="matrix(1,0,0,0.830941,14.0052,443.81)">
            <rect x="1324.26" y="338.087" width="495.302" height="1077.87" style="fill:rgb(194,194,194);"/>
            <g transform="matrix(0.876521,0,0,1,194.101,0)">
                <g transform="matrix(1,0,0,1.20345,-14.0052,-534.105)">
                    <g>
                        <g transform="matrix(0.626032,0,0,0.961175,482.62,245.878)">
                            <rect x="1311.04" y="1420.02" width="902.635" height="20.013" style="fill:rgb(189,189,189);"/>
                        </g>
                        <g transform="matrix(0.626032,0,0,0.961175,482.62,10.8454)">
                            <rect x="1311.04" y="1420.02" width="902.635" height="20.013" style="fill:rgb(189,189,189);"/>
                        </g>
                        <g transform="matrix(0.626032,0,0,0.961175,482.62,187.207)">
                            <rect x="1311.04" y="1420.02" width="902.635" height="20.013" style="fill:rgb(189,189,189);"/>
                        </g>
                        <g transform="matrix(0.626032,0,0,0.961175,482.62,-47.8263)">
                            <rect x="1311.04" y="1420.02" width="902.635" height="20.013" style="fill:rgb(189,189,189);"/>
                        </g>
                        <g transform="matrix(0.626032,0,0,0.961175,482.62,129.035)">
                            <rect x="1311.04" y="1420.02" width="902.635" height="20.013" style="fill:rgb(189,189,189);"/>
                        </g>
                        <g transform="matrix(0.626032,0,0,0.961175,482.62,-105.997)">
                            <rect x="1311.04" y="1420.02" width="902.635" height="20.013" style="fill:rgb(189,189,189);"/>
                        </g>
                        <g transform="matrix(0.626032,0,0,0.961175,482.62,69.7274)">
                            <rect x="1311.04" y="1420.02" width="902.635" height="20.013" style="fill:rgb(189,189,189);"/>
                        </g>
                        <g transform="matrix(0.626032,0,0,0.961175,482.62,-165.305)">
                            <rect x="1311.04" y="1420.02" width="902.635" height="20.013" style="fill:rgb(189,189,189);"/>
                        </g>
                    </g>
                    <g transform="matrix(1,0,0,1,-3.46745e-12,-470.132)">
                        <g transform="matrix(0.626032,0,0,0.961175,482.62,245.878)">
                            <rect x="1311.04" y="1420.02" width="902.635" height="20.013" style="fill:rgb(189,189,189);"/>
                        </g>
                        <g transform="matrix(0.626032,0,0,0.961175,482.62,10.8454)">
                            <rect x="1311.04" y="1420.02" width="902.635" height="20.013" style="fill:rgb(189,189,189);"/>
                        </g>
                        <g transform="matrix(0.626032,0,0,0.961175,482.62,187.207)">
                            <rect x="1311.04" y="1420.02" width="902.635" height="20.013" style="fill:rgb(189,189,189);"/>
                        </g>
                        <g transform="matrix(0.626032,0,0,0.961175,482.62,-47.8263)">
                            <rect x="1311.04" y="1420.02" width="902.635" height="20.013" style="fill:rgb(189,189,189);"/>
                        </g>
                        <g transform="matrix(0.626032,0,0,0.961175,482.62,129.035)">
                            <rect x="1311.04" y="1420.02" width="902.635" height="20.013" style="fill:rgb(189,189,189);"/>
                        </g>
                        <g transform="matrix(0.626032,0,0,0.961175,482.62,-105.997)">
                            <rect x="1311.04" y="1420.02" width="902.635" height="20.013" style="fill:rgb(189,189,189);"/>
                        </g>
                        <g transform="matrix(0.626032,0,0,0.961175,482.62,69.7274)">
                            <rect x="1311.04" y="1420.02" width="902.635" height="20.013" style="fill:rgb(189,189,189);"/>
                        </g>
                        <g transform="matrix(0.626032,0,0,0.961175,482.62,-165.305)">
                            <rect x="1311.04" y="1420.02" width="902.635" height="20.013" style="fill:rgb(189,189,189);"/>
                        </g>
                    </g>
                </g>
                <g transform="matrix(6.12323e-17,1.84772,-0.65132,7.36904e-17,2403.27,-2041.92)">
                    <g>
                        <g transform="matrix(0.626032,0,0,0.961175,482.62,245.878)">
                            <rect x="1311.04" y="1420.02" width="902.635" height="20.013" style="fill:rgb(195,195,195);"/>
                        </g>
                        <g transform="matrix(0.626032,0,0,0.961175,482.62,-98.7128)">
                            <rect x="1311.04" y="1420.02" width="902.635" height="20.013" style="fill:rgb(195,195,195);"/>
                        </g>
                        <g transform="matrix(0.626032,0,0,0.961175,482.62,133.036)">
                            <rect x="1311.04" y="1420.02" width="902.635" height="20.013" style="fill:rgb(195,195,195);"/>
                        </g>
                        <g transform="matrix(0.626032,0,0,0.961175,482.62,-214.54)">
                            <rect x="1311.04" y="1420.02" width="902.635" height="20.013" style="fill:rgb(195,195,195);"/>
                        </g>
                        <g transform="matrix(0.626032,0,0,0.961175,482.62,-330.199)">
                            <rect x="1311.04" y="1420.02" width="902.635" height="20.013" style="fill:rgb(195,195,195);"/>
                        </g>
                        <g transform="matrix(0.626032,0,0,0.961175,482.62,16.7061)">
                            <rect x="1311.04" y="1420.02" width="902.635" height="20.013" style="fill:rgb(195,195,195);"/>
                        </g>
                        <g transform="matrix(0.626032,0,0,0.961175,482.62,-445.558)">
                            <rect x="1311.04" y="1420.02" width="902.635" height="20.013" style="fill:rgb(195,195,195);"/>
                        </g>
                    </g>
                </g>
            </g>
        </g>
        <g transform="matrix(0.796954,0,0,1.06762,249.625,118.676)">
            <path d="M1676.75,236.599C1968.39,236.599 1987.49,567.679 1987.49,567.679L1366,567.679C1366,567.679 1411.98,236.599 1676.75,236.599Z" style="fill:rgb(214,214,214);"/>
        </g>
    </g>
    <g transform="matrix(0.983152,0,0,0.983152,-95.8189,671.229)">
        <g transform="matrix(1,0,0,1,5.25855,39.8311)">
            <path d="M683.747,1223.63L688.909,1203.94L900.477,1248.84L1027.22,1409.63L1041.2,1422.14L1026.88,1436.93L1011.01,1424L883.072,1266.44L683.747,1223.63Z" style="fill:rgb(51,94,117);"/>
        </g>
        <g id="Layer5" transform="matrix(0.30201,0,0,0.30201,96.8584,1083.37)">
            <g transform="matrix(3.31115,0,0,3.31115,-164.202,-3692.93)">
                <path d="M572.406,1297.93L542.732,1287.93C542.732,1287.93 525.435,1329.47 502.732,1353.93C487.947,1369.86 480.732,1397.93 480.732,1397.93L408.732,1397.93C408.732,1397.93 404.493,1298.1 397.732,1287.93C392.831,1280.56 323.703,1298.4 296.813,1297.92C273.22,1297.5 247.123,1297.92 247.123,1297.92L248.435,1319.84C292.218,1324.83 331.149,1339.85 362.99,1369.55L404.013,1442.72L480.732,1437.93C504.73,1411.74 532.655,1389.61 532.655,1389.61L572.406,1297.93Z" style="fill:rgb(207,124,24);"/>
            </g>
            <path d="M501.661,-85.811L483.024,949.028C483.024,949.028 507.355,951.916 556.535,934.198C612.108,914.178 678.206,890.957 771.368,893.794C796.975,894.574 959.845,948.886 1010.37,1015.31C1087.25,1116.37 1089.84,1273.58 1089.84,1273.58L1149.44,1273.58C1149.44,1273.58 1145.56,1383.45 1149.44,1386.15C1153.13,1388.73 1415.07,1386.59 1427.57,1386.15C1431,1386.04 1427.57,1273.58 1427.57,1273.58L2157.43,1257.12L2577.76,1217.69C2577.76,1217.69 2676.2,1076.36 2690.88,997.389C2705.55,918.416 2682.29,719.321 2651.2,693.988C2590.57,644.591 1766.99,506.044 1766.99,506.044L1667.72,-126.756L1571.06,-124.782C1571.06,-124.782 1626.57,437.596 1624.02,546.026C1622.25,621.384 1603.19,689.467 1550.09,754.268C1489.34,828.411 1427.57,1021.93 1427.57,1021.93L1162.68,1021.93C1162.68,1021.93 1186.98,582.212 1149.44,558.368C1071.4,508.799 593.682,526.333 593.682,526.333L573.297,-90.617L501.661,-85.811Z" style="fill:rgb(229,138,27);"/>
            <g transform="matrix(1,0,0,1,-46.078,-307.42)">
                <path d="M440.691,127.607C506.902,85.587 1558.78,97.91 1803.49,110.846C1845.36,113.059 1883.59,207.826 1883.59,207.826L404.222,262.76C404.222,262.76 412.842,145.281 440.691,127.607Z" style="fill:rgb(231,147,44);"/>
            </g>
        </g>
        <g transform="matrix(0.214462,0,0,0.214462,-381.136,1050.36)">
            <g transform="matrix(1,0,0,1,2463.83,786.899)">
                <circle cx="799.029" cy="1148.21" r="282.589" style="fill:rgb(214,214,214);stroke:rgb(214,214,214);stroke-width:4.66px;"/>
            </g>
            <g transform="matrix(3.31115,0,0,3.31115,-179.162,-3707.4)">
                <path d="M1052.53,1552.62C1042.1,1551.51 1031.58,1551.51 1021.15,1552.62L1013.8,1562.72C1002.77,1564.56 991.998,1567.72 981.72,1572.14L970.077,1567.62C960.706,1572.32 951.859,1578.01 943.684,1584.58L942.961,1597.05C934.677,1604.56 927.326,1613.05 921.065,1622.32L908.825,1624.81C903.487,1633.83 899.118,1643.4 895.792,1653.34L901.926,1664.23C899.02,1675.03 897.423,1686.14 897.167,1697.32L888.217,1706.03C888.606,1716.51 890.103,1726.92 892.682,1737.09L903.724,1742.92C907.12,1753.58 911.783,1763.79 917.614,1773.34L914.795,1785.51C920.788,1794.11 927.675,1802.06 935.34,1809.22L947.785,1808.16C956.404,1815.29 965.848,1821.36 975.913,1826.24L980.12,1838C989.815,1842 999.905,1844.96 1010.22,1846.84L1020.12,1839.22C1031.22,1840.56 1042.45,1840.56 1053.56,1839.22L1063.45,1846.84C1073.77,1844.96 1083.86,1842 1093.56,1838L1097.76,1826.24C1107.83,1821.36 1117.27,1815.29 1125.89,1808.16L1138.34,1809.22C1146,1802.06 1152.89,1794.11 1158.88,1785.51L1156.06,1773.34C1161.89,1763.79 1166.56,1753.58 1169.95,1742.92L1181,1737.09C1183.57,1726.92 1185.07,1716.51 1185.46,1706.03L1176.51,1697.32C1176.25,1686.14 1174.66,1675.03 1171.75,1664.23L1177.88,1653.34C1174.56,1643.4 1170.19,1633.83 1164.85,1624.81L1152.61,1622.32C1146.35,1613.05 1139,1604.56 1130.72,1597.05L1129.99,1584.58C1121.82,1578.01 1112.97,1572.32 1103.6,1567.62L1091.96,1572.14C1081.68,1567.72 1070.91,1564.56 1059.88,1562.72L1052.53,1552.62ZM1036.84,1640.09C1070.18,1640.09 1097.26,1667.17 1097.26,1700.51C1097.26,1733.86 1070.18,1760.93 1036.84,1760.93C1003.49,1760.93 976.419,1733.86 976.419,1700.51C976.419,1667.17 1003.49,1640.09 1036.84,1640.09Z"/>
            </g>
        </g>
        <g transform="matrix(0.156115,0,0,0.156115,244.563,1190.85)">
            <g transform="matrix(1,0,0,1,2463.83,786.899)">
                <circle cx="799.029" cy="1148.21" r="282.589" style="fill:rgb(214,214,214);stroke:rgb(214,214,214);stroke-width:6.41px;"/>
            </g>
            <g transform="matrix(3.31115,0,0,3.31115,-179.162,-3707.4)">
                <path d="M1052.53,1552.62C1042.1,1551.51 1031.58,1551.51 1021.15,1552.62L1013.8,1562.72C1002.77,1564.56 991.998,1567.72 981.72,1572.14L970.077,1567.62C960.706,1572.32 951.859,1578.01 943.684,1584.58L942.961,1597.05C934.677,1604.56 927.326,1613.05 921.065,1622.32L908.825,1624.81C903.487,1633.83 899.118,1643.4 895.792,1653.34L901.926,1664.23C899.02,1675.03 897.423,1686.14 897.167,1697.32L888.217,1706.03C888.606,1716.51 890.103,1726.92 892.682,1737.09L903.724,1742.92C907.12,1753.58 911.783,1763.79 917.614,1773.34L914.795,1785.51C920.788,1794.11 927.675,1802.06 935.34,1809.22L947.785,1808.16C956.404,1815.29 965.848,1821.36 975.913,1826.24L980.12,1838C989.815,1842 999.905,1844.96 1010.22,1846.84L1020.12,1839.22C1031.22,1840.56 1042.45,1840.56 1053.56,1839.22L1063.45,1846.84C1073.77,1844.96 1083.86,1842 1093.56,1838L1097.76,1826.24C1107.83,1821.36 1117.27,1815.29 1125.89,1808.16L1138.34,1809.22C1146,1802.06 1152.89,1794.11 1158.88,1785.51L1156.06,1773.34C1161.89,1763.79 1166.56,1753.58 1169.95,1742.92L1181,1737.09C1183.57,1726.92 1185.07,1716.51 1185.46,1706.03L1176.51,1697.32C1176.25,1686.14 1174.66,1675.03 1171.75,1664.23L1177.88,1653.34C1174.56,1643.4 1170.19,1633.83 1164.85,1624.81L1152.61,1622.32C1146.35,1613.05 1139,1604.56 1130.72,1597.05L1129.99,1584.58C1121.82,1578.01 1112.97,1572.32 1103.6,1567.62L1091.96,1572.14C1081.68,1567.72 1070.91,1564.56 1059.88,1562.72L1052.53,1552.62ZM1036.84,1640.09C1070.18,1640.09 1097.26,1667.17 1097.26,1700.51C1097.26,1733.86 1070.18,1760.93 1036.84,1760.93C1003.49,1760.93 976.419,1733.86 976.419,1700.51C976.419,1667.17 1003.49,1640.09 1036.84,1640.09Z"/>
            </g>
        </g>
        <g id="Layer7">
            <g transform="matrix(1,0,0,1,-28.4727,21.2736)">
                <path d="M675.446,1217.41L699.471,1314.45L930.028,1327.56L927.296,1304.1L715.473,1298.73L697.561,1210.62L675.446,1217.41Z" style="fill:rgb(55,102,127);"/>
            </g>
            <g transform="matrix(1,0,0,1,-21.1229,19.2838)">
                <path d="M651.123,1218.72L649.123,1201.72L922.678,1271.06L1001.12,1484.72L1000.37,1498.72L999.373,1516.72L994.964,1509.19L901.576,1301.74L651.123,1218.72Z" style="fill:rgb(59,109,135);"/>
            </g>
            <g transform="matrix(0.144614,0.00235323,-0.00556148,0.341772,584.45,1034.74)">
                <g transform="matrix(2.50322,2.97687e-18,6.08188e-17,2.92164,7.61518,-2750.51)">
                    <path d="M1279.8,1287.4L1118.76,1314.05L1235.59,1465.14L1422.42,1356.44L1279.8,1287.4Z" style="fill:rgb(46,85,106);"/>
                </g>
                <g transform="matrix(3.67079,-0.17499,0.876924,2.84487,-2550.13,-2436.57)">
                    <path d="M1261.49,1289.38L1291.49,1360.56L1422.42,1356.44L1261.49,1289.38Z" style="fill:rgb(43,79,99);"/>
                </g>
                <g transform="matrix(3.84627,-0.264283,1.47765,3.32581,-3494.17,-2954.85)">
                    <path d="M1268.66,1351.88L1176.11,1386.72L1263.57,1448.79L1392.84,1351.94L1268.66,1351.88Z" style="fill:rgb(52,97,120);"/>
                </g>
                <g transform="matrix(-7.40584,-2.27159e-16,1.02816e-16,2.63888,10908.7,-2764.24)">
                    <path d="M1093.89,1460.01L1098.75,1627.33L998.407,1627.13L1085.92,1455.79L1093.89,1460.01Z" style="fill:rgb(61,113,141);"/>
                </g>
            </g>
        </g>
    </g>
    <g id="Layer50">
    </g>
    <g id="Layer57">
    </g>
    <g id="Layer84">
    </g>
    <g id="Layer85">
    </g>
    <g id="Layer86">
    </g>
    <g id="Layer87">
    </g>
</svg>
